<svg xmlns="http://www.w3.org/2000/svg" viewBox="0 0 1200 680" role="img" aria-labelledby="t d"><title id="t">Responsive website across devices</title><desc id="d">A dark neon-pink interface shown on desktop, tablet and phone.</desc><defs><linearGradient id="b" x2="1" y2="1"><stop stop-color="#07070a"/><stop offset="1" stop-color="#21101a"/></linearGradient><filter id="s"><feDropShadow dy="22" stdDeviation="20" flood-opacity=".55"/></filter></defs><rect width="1200" height="680" rx="36" fill="url(#b)"/><g opacity=".12" stroke="#fff"><path d="M0 136h1200M0 272h1200M0 408h1200M0 544h1200"/><path d="M200 0v680M400 0v680M600 0v680M800 0v680M1000 0v680"/></g><g filter="url(#s)"><rect x="90" y="90" width="720" height="450" rx="22" fill="#101015" stroke="#42424b" stroke-width="4"/><rect x="116" y="118" width="668" height="390" rx="10" fill="#08080b"/><rect x="116" y="118" width="668" height="58" rx="10" fill="#15151b"/><circle cx="146" cy="147" r="7" fill="#fa1472"/><rect x="174" y="137" width="130" height="18" rx="9" fill="#fff"/><rect x="174" y="232" width="290" height="25" rx="12" fill="#fff"/><rect x="174" y="276" width="385" height="25" rx="12" fill="#fff"/><rect x="174" y="320" width="235" height="25" rx="12" fill="#fa1472"/><rect x="174" y="384" width="330" height="13" rx="6" fill="#777782"/><rect x="174" y="410" width="270" height="13" rx="6" fill="#4e4e57"/><rect x="174" y="454" width="140" height="45" rx="6" fill="#fa1472"/><circle cx="664" cy="330" r="105" fill="#fa1472" opacity=".13"/><path d="M586 373c55-121 164-126 213-35-86-7-137 15-213 35Z" fill="#24242a" stroke="#fa1472" stroke-width="5"/></g><g filter="url(#s)"><rect x="742" y="250" width="270" height="355" rx="28" fill="#101015" stroke="#42424b" stroke-width="4"/><rect x="764" y="280" width="226" height="286" rx="10" fill="#08080b"/><rect x="788" y="323" width="140" height="16" rx="8" fill="#fff"/><rect x="788" y="360" width="174" height="16" rx="8" fill="#fa1472"/><rect x="788" y="410" width="150" height="10" rx="5" fill="#777782"/><rect x="788" y="432" width="125" height="10" rx="5" fill="#4e4e57"/><rect x="788" y="474" width="110" height="42" rx="6" fill="#fa1472"/></g><g filter="url(#s)"><rect x="980" y="350" width="150" height="270" rx="30" fill="#101015" stroke="#42424b" stroke-width="4"/><rect x="994" y="382" width="122" height="196" rx="11" fill="#08080b"/><rect x="1010" y="416" width="75" height="11" rx="5" fill="#fff"/><rect x="1010" y="442" width="90" height="11" rx="5" fill="#fa1472"/><rect x="1010" y="478" width="70" height="8" rx="4" fill="#666671"/><rect x="1010" y="512" width="72" height="34" rx="5" fill="#fa1472"/></g></svg>